# xmcd
#
# Track frame offsets:
# 182
# 16712
# 32000
# 45585
# 60940
# 74607
# 93545
# 107217
# 124507
# 136700
# 153675
# 165770
# 178947
# 194042
# 209750
# 220905
# 235182
# 248285
#
# Disc length: 3504 seconds
#
#
# Revision: 0
# Processed by: cddbd v1.5.1PL2 Copyright (c) Steve Scherf et al.
# Submitted via: FreeRIP 2.944 
#
DISCID=f50dae12
DTITLE=Jacó e Jacozinho - Som da Terra
DYEAR=1900
DGENRE=
TTITLE0=Ladrão de Terra
TTITLE1=É Fogo
TTITLE2=Empreitada Perigosa
TTITLE3=Filho de Pobre
TTITLE4=Ninho de Cobra
TTITLE5=Velho Valente
TTITLE6=Terra Bruta
TTITLE7=Os Filhos da Bahia
TTITLE8=Preto e Branco
TTITLE9=Canção do Soldado
TTITLE10=Viva o Lari Larai
TTITLE11=Degrau da Fama
TTITLE12=Fundanga
TTITLE13=Caboclinha
TTITLE14=Amigo da Onça
TTITLE15=Homem Sem Rumo
TTITLE16=Cavalo Enxuto
TTITLE17=Tropa Saudosa
EXTD=
EXTT0=
EXTT1=
EXTT2=
EXTT3=
EXTT4=
EXTT5=
EXTT6=
EXTT7=
EXTT8=
EXTT9=
EXTT10=
EXTT11=
EXTT12=
EXTT13=
EXTT14=
EXTT15=
EXTT16=
EXTT17=
PLAYORDER=
